<svg xmlns="http://www.w3.org/2000/svg" viewBox="0 0 20 20">
  <path d="M3 4h6a1 1 0 0 1 1 1v10a1 1 0 0 1-1 1H3V4z" fill="#2980B9" opacity=".25"/>
  <path d="M17 4h-6a1 1 0 0 0-1 1v10a1 1 0 0 0 1 1h6V4z" fill="#2980B9" opacity=".45"/>
  <path d="M3 4h6a1 1 0 0 1 1 1v10a1 1 0 0 1-1 1H3V4z" fill="none" stroke="#2980B9" stroke-width="1.3"/>
  <path d="M17 4h-6a1 1 0 0 0-1 1v10a1 1 0 0 0 1 1h6V4z" fill="none" stroke="#2980B9" stroke-width="1.3"/>
  <line x1="10" y1="5" x2="10" y2="15" stroke="#2980B9" stroke-width="1.3"/>
  <line x1="5" y1="8" x2="9" y2="8" stroke="#2980B9" stroke-width="1" stroke-linecap="round"/>
  <line x1="5" y1="10.5" x2="9" y2="10.5" stroke="#2980B9" stroke-width="1" stroke-linecap="round"/>
  <line x1="5" y1="13" x2="9" y2="13" stroke="#2980B9" stroke-width="1" stroke-linecap="round"/>
</svg>
